#N canvas 0 127 767 612 10;
#X declare -stdpath osc -stdpath iemnet;
#X obj 65 40 udpreceive 17777;
#X obj 65 63 unpackOSC;
#X obj 474 38 loadbang;
#X msg 474 59 \; pd dsp 1;
#X obj 474 16 declare -stdpath osc -stdpath iemnet;
#X obj 208 190 adc~;
#X obj 207 249 *~ 0.5;
#X obj 208 221 +~;
#X obj 335 314 bonk~;
#X obj 113 300 fiddle~ 1024 1 20 0;
#X floatatom 120 404 5 0 0 0 - - -, f 5;
#X obj 335 341 trigger bang;
#X obj 502 312 env~ 1024;
#X obj 502 339 rmstodb;
#X obj 344 436 bng 15 250 50 0 empty empty empty 17 7 0 10 -262144
-1 -1;
#X msg 85 494 disconnect;
#X obj 27 544 udpsend;
#X obj 27 566 tgl 15 0 empty empty connected 17 7 0 10 -204786 -1 -1
1 1;
#X obj 392 526 packOSC;
#X obj 28 471 t b b;
#X obj 29 404 loadbang;
#X msg 29 426 1;
#X obj 28 494 delay 1;
#X obj 28 448 metro 7001;
#X text 177 42 <-- OSC RECEIVE PORT NUMBER;
#X text 63 11 Audio analysis - sends OSC;
#X msg 28 517 connect 127.0.0.1 18888;
#X obj 120 365 spigot;
#X obj 58 131 f;
#X obj 178 132 f;
#X obj 287 132 f;
#X obj 58 154 s \$0-enable-fiddle;
#X obj 178 154 s \$0-enable-bonk;
#X obj 287 154 s \$0-enable-env;
#X obj 363 366 r \$0-enable-bonk;
#X obj 154 338 r \$0-enable-fiddle;
#X obj 541 366 r \$0-enable-env;
#X obj 335 392 spigot;
#X obj 502 403 spigot;
#X obj 64 86 routeOSC /enable/fiddle /enable/bonk /enable/env /enable/debug
;
#X obj 393 135 f;
#X obj 393 157 s \$0-enable-debug;
#X obj 582 292 spigot;
#X obj 610 266 r \$0-enable-debug;
#X msg 392 503 sendtyped /fiddle f \$1;
#X obj 502 368 - 97;
#X msg 525 448 sendtyped /env f \$1;
#X msg 374 420 sendtyped /bonk;
#X floatatom 489 442 5 0 0 0 - - -, f 5;
#X connect 0 0 1 0;
#X connect 1 0 39 0;
#X connect 2 0 3 0;
#X connect 5 0 7 0;
#X connect 5 1 7 1;
#X connect 6 0 8 0;
#X connect 6 0 9 0;
#X connect 6 0 12 0;
#X connect 7 0 6 0;
#X connect 8 0 11 0;
#X connect 9 0 27 0;
#X connect 11 0 37 0;
#X connect 12 0 13 0;
#X connect 13 0 45 0;
#X connect 15 0 16 0;
#X connect 16 0 17 0;
#X connect 18 0 16 0;
#X connect 19 0 22 0;
#X connect 19 1 15 0;
#X connect 20 0 21 0;
#X connect 21 0 23 0;
#X connect 22 0 26 0;
#X connect 23 0 19 0;
#X connect 26 0 16 0;
#X connect 27 0 10 0;
#X connect 27 0 44 0;
#X connect 28 0 31 0;
#X connect 29 0 32 0;
#X connect 30 0 33 0;
#X connect 34 0 37 1;
#X connect 35 0 27 1;
#X connect 36 0 38 1;
#X connect 37 0 14 0;
#X connect 37 0 47 0;
#X connect 38 0 46 0;
#X connect 38 0 48 0;
#X connect 39 0 28 0;
#X connect 39 1 29 0;
#X connect 39 2 30 0;
#X connect 39 3 40 0;
#X connect 40 0 41 0;
#X connect 43 0 42 1;
#X connect 44 0 18 0;
#X connect 45 0 38 0;
#X connect 46 0 18 0;
#X connect 47 0 18 0;
